<!DOCTYPE svg PUBLIC "-//W3C//DTD SVG 20010904//EN" "http://www.w3.org/TR/2001/REC-SVG-20010904/DTD/svg10.dtd">
<svg version="1.0" xmlns="http://www.w3.org/2000/svg" width="204px" height="205px" viewBox="0 0 2040 2050" preserveAspectRatio="xMidYMid meet">
<g id="layer101" fill="#bb2546" stroke="none">
 <path d="M1473 1874 c-3 -9 11 -155 32 -325 31 -253 36 -311 25 -324 -16 -19 -34 -19 -51 1 -8 10 -27 130 -49 310 -29 236 -40 297 -55 314 -22 25 -53 25 -270 5 -170 -16 -198 -26 -222 -76 -6 -13 -23 -116 -37 -228 -27 -218 -36 -243 -88 -265 -25 -11 -45 -10 -126 6 -54 11 -111 29 -129 41 -42 28 -73 85 -73 133 0 88 102 236 202 293 l47 27 -49 49 -49 48 -58 -43 c-276 -207 -418 -536 -383 -887 47 -464 418 -803 879 -803 266 0 507 114 681 321 209 251 262 631 138 1009 -50 154 -172 366 -227 394 -41 22 -130 21 -138 0z m-235 -863 c61 -62 113 -154 131 -231 16 -67 13 -189 -5 -251 -16 -54 -63 -154 -69 -147 -1 1 3 35 11 73 36 188 -9 393 -122 546 -33 45 -37 69 -13 69 5 0 35 -27 67 -59z m-328 -161 c13 -31 8 -60 -10 -60 -14 0 -43 67 -35 80 12 19 33 10 45 -20z"/>
 </g>

</svg>